ply
format ascii 1.0
comment VCGLIB generated
element vertex 402
property float x
property float y
property float z
property float nx
property float ny
property float nz
element face 800
property list uchar int vertex_indices
end_header
0.148778 -0.987688 -0.048341 -0.8034014 4.908803 0.2998895 
0.126558 -0.987688 -0.09195 -0.671409 4.908803 0.5334785 
0.09195 -0.987688 -0.126558 -0.4736959 4.908803 0.7148434 
0.048341 -0.987688 -0.148778 -0.2296144 4.908802 0.8262375 
0 -0.987688 -0.156435 0.03694866 4.908802 0.8567522 
-0.048341 -0.987688 -0.148778 0.2998934 4.908803 0.8034009 
-0.09195 -0.987688 -0.126558 0.5334785 4.908803 0.671409 
-0.126558 -0.987688 -0.09195 0.7148434 4.908803 0.4736959 
-0.148778 -0.987688 -0.048341 0.8262375 4.908802 0.2296144 
-0.156435 -0.987688 0 0.8567522 4.908802 -0.03694866 
-0.148778 -0.987688 0.048341 0.8034009 4.908803 -0.2998934 
-0.126558 -0.987688 0.09195 0.671409 4.908803 -0.5334785 
-0.09195 -0.987688 0.126558 0.4736959 4.908803 -0.7148434 
-0.048341 -0.987688 0.148778 0.2296078 4.908803 -0.8262365 
-0 -0.987688 0.156434 -0.0369468 4.908803 -0.8567526 
0.048341 -0.987688 0.148778 -0.2998889 4.908802 -0.8034024 
0.09195 -0.987688 0.126558 -0.5334781 4.908802 -0.6714094 
0.126558 -0.987688 0.09195 -0.7148434 4.908803 -0.4736959 
0.148778 -0.987688 0.048341 -0.8262365 4.908803 -0.2296078 
0.156434 -0.987688 0 -0.8567524 4.908803 0.03694637 
0.293893 -0.951057 -0.095492 -1.748171 5.681684 0.5927787 
0.25 -0.951057 -0.181636 -1.479431 5.681683 1.103985 
0.181636 -0.951057 -0.25 -1.065877 5.681683 1.507118 
0.095492 -0.951057 -0.293893 -0.5479825 5.681684 1.762726 
0 -0.951057 -0.309017 0.02355037 5.681684 1.84579 
-0.095492 -0.951057 -0.293893 0.5927836 5.681683 1.748171 
-0.181636 -0.951057 -0.25 1.103985 5.681683 1.479431 
-0.25 -0.951057 -0.181636 1.507118 5.681683 1.065877 
-0.293893 -0.951057 -0.095492 1.762726 5.681684 0.5479825 
-0.309017 -0.951057 0 1.84579 5.681684 -0.02355038 
-0.293893 -0.951057 0.095492 1.748171 5.681683 -0.5927836 
-0.25 -0.951057 0.181636 1.479431 5.681683 -1.103985 
-0.181636 -0.951057 0.25 1.065877 5.681683 -1.507118 
-0.095492 -0.951057 0.293893 0.5479799 5.681684 -1.762725 
-0 -0.951057 0.309017 -0.02355377 5.681684 -1.845788 
0.095491 -0.951057 0.293893 -0.5927771 5.681684 -1.748171 
0.181636 -0.951057 0.25 -1.103983 5.681683 -1.479432 
0.25 -0.951057 0.181636 -1.507118 5.681683 -1.065877 
0.293893 -0.951057 0.095492 -1.762725 5.681684 -0.5479799 
0.309017 -0.951057 0 -1.845788 5.681684 0.02355301 
0.431771 -0.891007 -0.140291 -2.568774 5.315764 0.8577487 
0.367286 -0.891007 -0.266849 -2.177986 5.315767 1.609563 
0.266849 -0.891007 -0.367286 -1.574009 5.315765 2.203821 
0.140291 -0.891007 -0.431771 -0.8159572 5.315764 2.582354 
0 -0.891007 -0.453991 0.02197604 5.315764 2.708108 
-0.140291 -0.891007 -0.431771 0.8577534 5.315763 2.568774 
-0.266849 -0.891007 -0.367286 1.609568 5.315763 2.17799 
-0.367286 -0.891007 -0.266849 2.203823 5.315763 1.574014 
-0.431771 -0.891007 -0.140291 2.582358 5.315761 0.8159564 
-0.453991 -0.891007 0 2.708114 5.315762 -0.02197476 
-0.431771 -0.891007 0.140291 2.568776 5.315763 -0.8577522 
-0.367286 -0.891007 0.266849 2.17799 5.315763 -1.609568 
-0.266849 -0.891007 0.367286 1.574014 5.315763 -2.203823 
-0.140291 -0.891007 0.431771 0.8159564 5.315761 -2.582358 
-0 -0.891007 0.453991 -0.02197504 5.315762 -2.708113 
0.140291 -0.891007 0.431771 -0.8577535 5.315762 -2.568776 
0.266849 -0.891007 0.367286 -1.609567 5.315762 -2.177993 
0.367286 -0.891007 0.266849 -2.203823 5.315762 -1.574015 
0.431771 -0.891007 0.140291 -2.582358 5.315761 -0.8159564 
0.453991 -0.891007 0 -2.708114 5.315762 0.02197476 
0.559017 -0.809017 -0.181636 -3.322831 4.818449 1.100518 
0.475529 -0.809017 -0.345492 -2.820117 4.818449 2.073467 
0.345492 -0.809017 -0.475529 -2.041348 4.818451 2.843449 
0.181636 -0.809017 -0.559017 -1.062769 4.818449 3.335095 
0 -0.809017 -0.587786 0.01984808 4.818448 3.500278 
-0.181636 -0.809017 -0.559017 1.100525 4.81845 3.322826 
-0.345492 -0.809017 -0.475528 2.073469 4.818451 2.820114 
-0.475528 -0.809017 -0.345492 2.843447 4.818452 2.041353 
-0.559017 -0.809017 -0.181636 3.335093 4.81845 1.062768 
-0.587785 -0.809017 0 3.500278 4.818449 -0.01984724 
-0.559017 -0.809017 0.181636 3.322827 4.81845 -1.100521 
-0.475528 -0.809017 0.345492 2.820115 4.818449 -2.073472 
-0.345492 -0.809017 0.475528 2.041357 4.818449 -2.84345 
-0.181636 -0.809017 0.559017 1.06277 4.818449 -3.335093 
-0 -0.809017 0.587785 -0.01984724 4.818449 -3.500278 
0.181636 -0.809017 0.559017 -1.100526 4.818448 -3.322827 
0.345491 -0.809017 0.475528 -2.073473 4.818447 -2.82012 
0.475528 -0.809017 0.345492 -2.843448 4.818448 -2.041361 
0.559017 -0.809017 0.181636 -3.335093 4.818449 -1.06277 
0.587785 -0.809017 0 -3.500278 4.818449 0.01984724 
0.672499 -0.707107 -0.218508 -3.991933 4.203609 1.315189 
0.572062 -0.707107 -0.415627 -3.390137 4.203609 2.484395 
0.415627 -0.707107 -0.572062 -2.456486 4.203606 3.410417 
0.218508 -0.707107 -0.672499 -1.28238 4.203605 4.002597 
0 -0.707107 -0.707107 0.01724881 4.203604 4.202974 
-0.218508 -0.707107 -0.672499 1.315196 4.203606 3.991934 
-0.415627 -0.707107 -0.572062 2.484399 4.203608 3.390134 
-0.572062 -0.707107 -0.415627 3.410414 4.203607 2.456487 
-0.672499 -0.707107 -0.218508 4.002593 4.203608 1.28238 
-0.707107 -0.707107 0 4.20297 4.203608 -0.01725088 
-0.672499 -0.707107 0.218508 3.991931 4.203608 -1.315192 
-0.572062 -0.707107 0.415627 3.390131 4.203609 -2.484401 
-0.415627 -0.707107 0.572061 2.456489 4.203609 -3.410414 
-0.218508 -0.707107 0.672499 1.282385 4.203607 -4.002592 
-0 -0.707107 0.707107 -0.0172509 4.203608 -4.20297 
0.218508 -0.707107 0.672499 -1.315195 4.203611 -3.991927 
0.415627 -0.707107 0.572061 -2.484401 4.203612 -3.390131 
0.572061 -0.707107 0.415627 -3.410409 4.20361 -2.456492 
0.672499 -0.707107 0.218508 -4.002592 4.203607 -1.282385 
0.707107 -0.707107 0 -4.20297 4.203608 0.01725088 
0.769421 -0.587785 -0.25 -4.560442 3.487762 1.496762 
0.654509 -0.587785 -0.475529 -3.87471 3.487763 2.832759 
0.475529 -0.587785 -0.654509 -2.809689 3.487765 3.891469 
0.25 -0.587785 -0.769421 -1.469644 3.487765 4.569252 
0 -0.587785 -0.809017 0.01425752 3.487765 4.799761 
-0.25 -0.587785 -0.769421 1.496763 3.487764 4.56044 
-0.475528 -0.587785 -0.654509 2.83276 3.487766 3.874709 
-0.654509 -0.587785 -0.475528 3.891469 3.487765 2.809692 
-0.769421 -0.587785 -0.25 4.569251 3.487764 1.469646 
-0.809017 -0.587785 0 4.799761 3.487765 -0.01425752 
-0.769421 -0.587785 0.25 4.56044 3.487764 -1.496763 
-0.654509 -0.587785 0.475528 3.874707 3.487768 -2.83276 
-0.475528 -0.587785 0.654509 2.809689 3.487769 -3.891468 
-0.25 -0.587785 0.769421 1.469647 3.487767 -4.569247 
-0 -0.587785 0.809017 -0.01425752 3.487765 -4.799761 
0.25 -0.587785 0.769421 -1.496764 3.487766 -4.560438 
0.475528 -0.587785 0.654509 -2.832763 3.487769 -3.874703 
0.654509 -0.587785 0.475528 -3.891467 3.487766 -2.809693 
0.769421 -0.587785 0.25 -4.569248 3.487766 -1.469649 
0.809017 -0.587785 0 -4.799761 3.487765 0.01425752 
0.847398 -0.453991 -0.275336 -5.015664 2.689354 1.641207 
0.72084 -0.453991 -0.523721 -4.263023 2.689343 3.110807 
0.523721 -0.453991 -0.72084 -3.09308 2.689345 4.275901 
0.275336 -0.453991 -0.847398 -1.620365 2.689354 5.022436 
0 -0.453991 -0.891007 0.01095665 2.689358 5.277338 
-0.275336 -0.453991 -0.847398 1.641207 2.689355 5.015662 
-0.523721 -0.453991 -0.72084 3.110806 2.689348 4.26302 
-0.72084 -0.453991 -0.523721 4.275898 2.689353 3.093078 
-0.847398 -0.453991 -0.275336 5.022434 2.689356 1.620366 
-0.891007 -0.453991 0 5.277338 2.689358 -0.01095665 
-0.847398 -0.453991 0.275336 5.015662 2.689355 -1.641207 
-0.72084 -0.453991 0.523721 4.26302 2.689348 -3.110806 
-0.523721 -0.453991 0.72084 3.093078 2.689353 -4.275898 
-0.275336 -0.453991 0.847398 1.620366 2.689356 -5.022434 
-0 -0.453991 0.891007 -0.01095665 2.689358 -5.277338 
0.275336 -0.453991 0.847398 -1.641207 2.689355 -5.015662 
0.523721 -0.453991 0.72084 -3.110808 2.689351 -4.263017 
0.720839 -0.453991 0.523721 -4.275898 2.689354 -3.09308 
0.847398 -0.453991 0.275336 -5.022434 2.689355 -1.62037 
0.891007 -0.453991 0 -5.277338 2.689358 0.01095665 
0.904509 -0.309017 -0.293893 -5.347923 1.828124 1.745456 
0.769421 -0.309017 -0.559017 -4.546803 1.828125 3.312628 
0.559017 -0.309017 -0.769421 -3.300613 1.828121 4.555534 
0.293893 -0.309017 -0.904509 -1.731329 1.828125 5.352514 
0 -0.309017 -0.951057 0.007427365 1.828127 5.625553 
-0.293893 -0.309017 -0.904509 1.745458 1.828127 5.347922 
-0.559017 -0.309017 -0.769421 3.312628 1.828125 4.546803 
-0.769421 -0.309017 -0.559017 4.555535 1.828121 3.300613 
-0.904509 -0.309017 -0.293893 5.352514 1.828125 1.731329 
-0.951057 -0.309017 0 5.625553 1.828127 -0.007427365 
-0.904509 -0.309017 0.293893 5.347922 1.828127 -1.745458 
-0.769421 -0.309017 0.559017 4.546803 1.828125 -3.312628 
-0.559017 -0.309017 0.769421 3.300613 1.828121 -4.555534 
-0.293893 -0.309017 0.904509 1.731327 1.828119 -5.352516 
-0 -0.309017 0.951057 -0.007426381 1.828117 -5.625556 
0.293893 -0.309017 0.904509 -1.745456 1.828121 -5.347925 
0.559017 -0.309017 0.769421 -3.312628 1.828125 -4.546802 
0.769421 -0.309017 0.559017 -4.555535 1.828124 -3.30061 
0.904509 -0.309017 0.293893 -5.352514 1.828121 -1.731328 
0.951057 -0.309017 0 -5.625556 1.828118 0.007425636 
0.939348 -0.156434 -0.305213 -5.550419 0.9246719 1.807377 
0.799057 -0.156434 -0.580549 -4.720244 0.9246833 3.434099 
0.580549 -0.156434 -0.799057 -3.428029 0.9246777 4.724656 
0.305213 -0.156434 -0.939348 -1.800251 0.9246683 5.552733 
0 -0.156434 -0.987689 0.003749669 0.9246657 5.837273 
-0.305213 -0.156434 -0.939348 1.807386 0.924666 5.550415 
-0.580549 -0.156434 -0.799057 3.4341 0.9246654 4.720246 
-0.799057 -0.156434 -0.580549 4.724655 0.924668 3.428031 
-0.939348 -0.156434 -0.305213 5.552733 0.9246669 1.800251 
-0.987689 -0.156434 0 5.837273 0.9246657 -0.003749639 
-0.939348 -0.156434 0.305213 5.550415 0.924666 -1.807386 
-0.799057 -0.156434 0.580549 4.720246 0.9246654 -3.4341 
-0.580549 -0.156434 0.799057 3.428031 0.924668 -4.724655 
-0.305213 -0.156434 0.939348 1.800247 0.9246702 -5.552734 
-0 -0.156434 0.987688 -0.003750175 0.9246665 -5.837276 
0.305212 -0.156434 0.939348 -1.80738 0.9246642 -5.550418 
0.580549 -0.156434 0.799057 -3.434098 0.9246641 -4.720248 
0.799057 -0.156434 0.580549 -4.724656 0.9246696 -3.42803 
0.939348 -0.156434 0.305212 -5.552735 0.9246694 -1.800246 
0.987688 -0.156434 0 -5.837276 0.9246657 0.003748655 
0.951057 0 -0.309017 -2.630087 3.223022 0.7036362 
0.809018 0 -0.587786 -2.283922 3.223025 1.481943 
0.587786 0 -0.809017 -1.714193 3.223023 2.115184 
0.309017 0 -0.951057 -0.9766684 3.223014 2.541374 
0 0 -1 -0.1435378 3.223011 2.718799 
-0.309017 0 -0.951057 0.7036417 3.223011 2.630086 
-0.587785 0 -0.809017 1.481947 3.223009 2.283923 
-0.809017 0 -0.587785 2.115185 3.223008 1.714197 
-0.951057 0 -0.309017 2.541375 3.223011 0.9766698 
-1 0 0 2.718799 3.223011 0.1435379 
-0.951057 0 0.309017 2.630086 3.223011 -0.7036417 
-0.809017 0 0.587785 2.283923 3.223009 -1.481947 
-0.587785 0 0.809017 1.714197 3.223008 -2.115185 
-0.309017 0 0.951057 0.9766682 3.223014 -2.541375 
-0 0 1 0.143536 3.223022 -2.718799 
0.309017 0 0.951057 -0.7036382 3.22302 -2.630086 
0.587785 0 0.809017 -1.481946 3.223012 -2.283924 
0.809017 0 0.587785 -2.115184 3.223009 -1.714196 
0.951057 0 0.309017 -2.541374 3.223018 -0.9766667 
1 0 0 -2.718799 3.223022 -0.1435367 
0 -1 0 -9.983778e-07 19.9368 -9.872019e-07 
0.16407 -1.08674 -0.053311 0.8034146 -4.908798 -0.2998979 
0.139567 -1.08674 -0.1014 0.6714196 -4.908799 -0.5334806 
0.275673 -1.04635 -0.200289 1.479448 -5.681679 -1.103986 
0.324074 -1.046349 -0.105299 1.748193 -5.681678 -0.5927906 
0.1014 -1.08674 -0.139568 0.4736986 -4.908799 -0.7148532 
0.200288 -1.04635 -0.275673 1.065885 -5.68168 -1.507128 
0.053309 -1.08674 -0.164071 0.2296122 -4.908799 -0.8262479 
0.105298 -1.04635 -0.324073 0.5479901 -5.681681 -1.762738 
1e-06 -1.08674 -0.172514 -0.03695026 -4.9088 -0.856759 
0 -1.04635 -0.340751 -0.02355458 -5.681679 -1.845803 
-0.053309 -1.08674 -0.16407 -0.2998951 -4.9088 -0.8034071 
-0.105298 -1.04635 -0.324074 -0.5927899 -5.681677 -1.748188 
-0.101399 -1.08674 -0.139567 -0.5334864 -4.908799 -0.671416 
-0.200289 -1.04635 -0.275673 -1.103997 -5.681677 -1.479443 
-0.139568 -1.08674 -0.101399 -0.7148538 -4.908799 -0.4737039 
-0.275674 -1.046349 -0.20029 -1.507138 -5.681677 -1.065888 
-0.16407 -1.08674 -0.05331 -0.8262503 -4.908799 -0.2296056 
-0.324074 -1.04635 -0.105297 -1.762748 -5.681677 -0.5479842 
-0.172513 -1.08674 0 -0.856769 -4.908798 0.03693724 
-0.340752 -1.046349 -1e-06 -1.845817 -5.681676 0.02355009 
-0.164071 -1.08674 0.053311 -0.8034076 -4.908799 0.2998922 
-0.324074 -1.04635 0.105297 -1.748197 -5.681677 0.5927652 
-0.139566 -1.08674 0.101401 -0.6714075 -4.908801 0.533487 
-0.275674 -1.04635 0.200288 -1.479441 -5.681678 1.103996 
-0.101397 -1.08674 0.139569 -0.473689 -4.908801 0.7148513 
-0.200289 -1.04635 0.275674 -1.065878 -5.681677 1.507138 
-0.053307 -1.08674 0.164071 -0.229607 -4.9088 0.8262442 
-0.105298 -1.04635 0.324074 -0.5479837 -5.681677 1.762747 
1e-06 -1.08674 0.172514 0.03695106 -4.9088 0.8567573 
-1e-06 -1.04635 0.340751 0.02355411 -5.681677 1.845808 
0.053311 -1.08674 0.16407 0.2998999 -4.9088 0.8034012 
0.105298 -1.04635 0.324074 0.5927894 -5.681677 1.74819 
0.1014 -1.08674 0.139566 0.5334884 -4.908799 0.671415 
0.200288 -1.04635 0.275674 1.104004 -5.681677 1.479439 
0.139565 -1.08674 0.101403 0.7148562 -4.908797 0.4737062 
0.275674 -1.046349 0.200289 1.50714 -5.681676 1.065888 
0.16407 -1.08674 0.05331 0.8262474 -4.908798 0.2296237 
0.324074 -1.046349 0.105299 1.76275 -5.681676 0.5480035 
0.172514 -1.08674 -3e-06 0.8567631 -4.908798 -0.03695706 
0.340751 -1.04635 1e-06 1.845806 -5.681678 -0.02354866 
0.404953 -0.980159 -0.294216 2.177994 -5.315763 -1.609561 
0.476051 -0.980159 -0.154678 2.568771 -5.315766 -0.8577524 
0.294216 -0.980159 -0.404953 1.574011 -5.315765 -2.20382 
0.154679 -0.98016 -0.476049 0.815963 -5.315767 -2.582346 
-0 -0.98016 -0.500549 -0.02197495 -5.315771 -2.708096 
-0.154678 -0.980159 -0.47605 -0.8577566 -5.315769 -2.568769 
-0.294215 -0.980159 -0.404953 -1.609568 -5.315764 -2.177989 
-0.404953 -0.980159 -0.294215 -2.203821 -5.315767 -1.574009 
-0.47605 -0.980159 -0.154678 -2.582348 -5.315769 -0.8159527 
-0.500549 -0.980159 0 -2.708102 -5.315771 0.02197364 
-0.47605 -0.980159 0.154678 -2.568774 -5.315767 0.8577406 
-0.404952 -0.98016 0.294215 -2.177994 -5.315763 1.609562 
-0.294215 -0.980159 0.404953 -1.574008 -5.315763 2.203828 
-0.154678 -0.980159 0.47605 -0.8159605 -5.315764 2.582358 
-0 -0.98016 0.500548 0.0219745 -5.315766 2.708105 
0.154678 -0.980159 0.47605 0.8577522 -5.315765 2.568776 
0.294215 -0.980159 0.404953 1.609564 -5.315766 2.177987 
0.404952 -0.980159 0.294215 2.20382 -5.31577 1.574002 
0.47605 -0.980159 0.154678 2.582344 -5.315771 0.8159596 
0.500549 -0.980159 0 2.708101 -5.315769 -0.02196629 
0.524211 -0.889825 -0.380861 2.820115 -4.818454 -2.073464 
0.616246 -0.889826 -0.20023 3.322819 -4.818456 -1.10052 
0.380862 -0.889825 -0.524211 2.041355 -4.818452 -2.843445 
0.200231 -0.889826 -0.616246 1.062774 -4.818452 -3.335089 
0 -0.889826 -0.64796 -0.01984432 -4.818452 -3.500271 
-0.20023 -0.889826 -0.616247 -1.100527 -4.818458 -3.322814 
-0.380861 -0.889826 -0.52421 -2.073467 -4.818458 -2.820103 
-0.524211 -0.889825 -0.380861 -2.843445 -4.818453 -2.041352 
-0.616247 -0.889826 -0.20023 -3.335087 -4.818452 -1.062766 
-0.647961 -0.889825 -0 -3.500271 -4.818452 0.01984781 
-0.616247 -0.889826 0.200231 -3.322817 -4.818453 1.100523 
-0.524211 -0.889825 0.380861 -2.820114 -4.818451 2.07347 
-0.380862 -0.889825 0.524211 -2.041351 -4.818448 2.843453 
-0.200231 -0.889825 0.616247 -1.062772 -4.818448 3.335095 
-0 -0.889826 0.64796 0.01984431 -4.818451 3.500271 
0.200231 -0.889825 0.616247 1.100527 -4.818454 3.322819 
0.380861 -0.889826 0.52421 2.073461 -4.818456 2.820111 
0.52421 -0.889826 0.380861 2.843439 -4.818458 2.041346 
0.616246 -0.889826 0.200231 3.335083 -4.818456 1.062768 
0.64796 -0.889826 -0 3.500268 -4.818454 -0.01984724 
0.630515 -0.777601 -0.458095 3.390129 -4.203617 -2.484393 
0.741214 -0.777601 -0.240835 3.991928 -4.203614 -1.315192 
0.458095 -0.777601 -0.630515 2.456484 -4.203614 -3.410408 
0.240835 -0.777601 -0.741214 1.282385 -4.20361 -4.002592 
-0 -0.777601 -0.779359 -0.01724872 -4.203606 -4.202971 
-0.240836 -0.777601 -0.741214 -1.315196 -4.203605 -3.991934 
-0.458095 -0.777601 -0.630515 -2.484403 -4.203612 -3.390126 
-0.630514 -0.777601 -0.458095 -3.410411 -4.203614 -2.456486 
-0.741214 -0.777601 -0.240835 -4.002591 -4.203609 -1.282383 
-0.779358 -0.777601 0 -4.202978 -4.203602 0.01725179 
-0.741214 -0.777601 0.240835 -3.991935 -4.203605 1.315193 
-0.630514 -0.777601 0.458095 -3.39013 -4.203612 2.484403 
-0.458095 -0.777601 0.630514 -2.456485 -4.203612 3.410412 
-0.240835 -0.7776 0.741214 -1.282384 -4.203607 4.002596 
0 -0.777601 0.779358 0.017241 -4.203607 4.202973 
0.240835 -0.777601 0.741214 1.315196 -4.203612 3.991928 
0.458095 -0.777601 0.630514 2.484396 -4.203613 3.390134 
0.630514 -0.777601 0.458096 3.410406 -4.203614 2.456488 
0.741214 -0.777601 0.240835 4.002587 -4.203615 1.282381 
0.779358 -0.777601 0 4.202967 -4.203613 -0.01724848 
0.721258 -0.646272 -0.524025 3.87471 -3.48776 -2.832763 
0.84789 -0.646272 -0.275496 4.560437 -3.487763 -1.496765 
0.524025 -0.646272 -0.721258 2.809693 -3.487759 -3.891471 
0.275497 -0.646271 -0.84789 1.469649 -3.487756 -4.569255 
0 -0.646272 -0.891524 -0.01425412 -3.487759 -4.799764 
-0.275496 -0.646271 -0.84789 -1.496771 -3.487758 -4.560441 
-0.524025 -0.646272 -0.721258 -2.832765 -3.487758 -3.87471 
-0.721259 -0.646271 -0.524024 -3.891472 -3.487761 -2.809691 
-0.84789 -0.646272 -0.275496 -4.569252 -3.487759 -1.469644 
-0.891524 -0.646271 -0 -4.799765 -3.48776 0.01426116 
-0.847889 -0.646272 0.275496 -4.560442 -3.487758 1.496764 
-0.721258 -0.646272 0.524025 -3.874707 -3.487761 2.832764 
-0.524024 -0.646272 0.721258 -2.80969 -3.487764 3.891469 
-0.275496 -0.646271 0.84789 -1.469645 -3.487764 4.569249 
0 -0.646271 0.891524 0.0142532 -3.48776 4.799763 
0.275496 -0.646272 0.84789 1.496765 -3.48776 4.560439 
0.524024 -0.646272 0.721258 2.832767 -3.487757 3.87471 
0.721258 -0.646272 0.524025 3.891469 -3.487752 2.809703 
0.84789 -0.646272 0.275496 4.569254 -3.487754 1.469647 
0.891524 -0.646272 0 4.799762 -3.487761 -0.01425511 
0.794228 -0.499086 -0.57704 4.263019 -2.689353 -3.110809 
0.933671 -0.499087 -0.303368 5.015668 -2.689347 -1.641202 
0.57704 -0.499087 -0.794228 3.093079 -2.689353 -4.275899 
0.303368 -0.499087 -0.93367 1.620366 -2.689356 -5.022436 
0 -0.499087 -0.981719 -0.01095238 -2.689352 -5.277343 
-0.303368 -0.499087 -0.933671 -1.64121 -2.689353 -5.015662 
-0.57704 -0.499087 -0.794227 -3.110808 -2.689352 -4.26302 
-0.794228 -0.499087 -0.57704 -4.2759 -2.689352 -3.093078 
-0.93367 -0.499087 -0.303368 -5.022439 -2.689351 -1.620362 
-0.981719 -0.499086 0 -5.277346 -2.689348 0.01095578 
-0.933671 -0.499086 0.303368 -5.015664 -2.689356 1.641205 
-0.794227 -0.499087 0.57704 -4.263019 -2.689355 3.110806 
-0.57704 -0.499086 0.794228 -3.093077 -2.689355 4.2759 
-0.303368 -0.499087 0.93367 -1.620368 -2.689357 5.022435 
-0 -0.499087 0.981719 0.01095581 -2.689357 5.27734 
0.303368 -0.499087 0.93367 1.641207 -2.689351 5.015666 
0.57704 -0.499086 0.794228 3.110812 -2.689346 4.26302 
0.794227 -0.499086 0.57704 4.275902 -2.689343 3.093086 
0.93367 -0.499087 0.303368 5.022442 -2.689339 1.620371 
0.981719 -0.499086 -0 5.277351 -2.689338 -0.01095021 
0.847649 -0.339672 -0.615853 4.546802 -1.828124 -3.312626 
0.996471 -0.339671 -0.323773 5.347927 -1.828123 -1.745447 
0.615853 -0.339671 -0.847649 3.300606 -1.828126 -4.555533 
0.323773 -0.339672 -0.996471 1.731327 -1.828134 -5.352511 
-0 -0.33967 -1.047752 -0.00742808 -1.828138 -5.625549 
-0.323773 -0.339671 -0.996471 -1.745457 -1.828129 -5.347921 
-0.615853 -0.33967 -0.847649 -3.312628 -1.828125 -4.546802 
-0.847649 -0.339671 -0.615853 -4.555531 -1.828128 -3.30061 
-0.996471 -0.339671 -0.323773 -5.352514 -1.828133 -1.73132 
-1.047751 -0.339671 -0 -5.625552 -1.828135 0.007425815 
-0.996471 -0.339671 0.323773 -5.347923 -1.828128 1.74545 
-0.847649 -0.339671 0.615853 -4.546801 -1.828128 3.312625 
-0.615853 -0.339671 0.847649 -3.300604 -1.828128 4.555533 
-0.323773 -0.339671 0.996471 -1.731327 -1.828123 5.352515 
0 -0.33967 1.047752 0.007425725 -1.828126 5.625552 
0.323773 -0.339671 0.996471 1.745457 -1.82813 5.34792 
0.615852 -0.339671 0.847649 3.312626 -1.828131 4.546801 
0.847648 -0.339671 0.615853 4.555532 -1.828133 3.300608 
0.996471 -0.33967 0.323773 5.352511 -1.828134 1.731325 
1.047751 -0.33967 0 5.625554 -1.828129 -0.007424504 
0.880227 -0.171939 -0.639522 4.720249 -0.9246725 -3.434096 
1.034769 -0.171938 -0.336217 5.550417 -0.9246739 -1.807378 
0.639522 -0.171939 -0.880227 3.428028 -0.9246707 -4.724659 
0.336216 -0.171939 -1.034769 1.800251 -0.924665 -5.552736 
0 -0.171939 -1.088021 -0.003749758 -0.9246663 -5.837271 
-0.336217 -0.171939 -1.034769 -1.807386 -0.9246733 -5.550416 
-0.639522 -0.171939 -0.880227 -3.434097 -0.9246775 -4.720247 
-0.880227 -0.171939 -0.639522 -4.724656 -0.9246724 -3.42803 
-1.034769 -0.171939 -0.336217 -5.552734 -0.9246733 -1.800246 
-1.08802 -0.171939 -0 -5.837273 -0.9246763 0.00375095 
-1.034769 -0.17194 0.336216 -5.550417 -0.9246768 1.807378 
-0.880227 -0.171938 0.639522 -4.720249 -0.9246745 3.434096 
-0.639522 -0.17194 0.880227 -3.428026 -0.9246745 4.724658 
-0.336217 -0.171939 1.034768 -1.800248 -0.9246732 5.552737 
-0 -0.171939 1.08802 0.003745466 -0.924666 5.837274 
0.336217 -0.171938 1.034769 1.807383 -0.92467 5.550417 
0.639522 -0.171938 0.880227 3.434099 -0.9246756 4.720246 
0.880227 -0.171939 0.639522 4.724656 -0.9246776 3.428028 
1.034769 -0.171939 0.336216 5.552733 -0.9246786 1.800246 
1.08802 -0.171939 0 5.837272 -0.9246782 -0.003750503 
0.890669 -0.007943 -0.647109 2.664737 2.75802 -1.758622 
1.047044 -0.007943 -0.340205 3.07776 2.758023 -0.8490971 
0.647109 -0.007943 -0.890669 1.99087 2.758017 -2.495997 
0.340205 -0.007943 -1.047044 1.122125 2.758023 -2.989048 
0 -0.007943 -1.100927 0.1435393 2.758032 -3.189509 
-0.340205 -0.007943 -1.047044 -0.8491 2.75803 -3.077759 
-0.647109 -0.007943 -0.890669 -1.758621 2.758021 -2.664736 
-0.890669 -0.007943 -0.647109 -2.495996 2.758018 -1.990871 
-1.047044 -0.007943 -0.340205 -2.989047 2.758023 -1.122124 
-1.100927 -0.007943 -0 -3.18951 2.758023 -0.1435372 
-1.047044 -0.007943 0.340205 -3.07776 2.758022 0.8490966 
-0.890669 -0.007943 0.647109 -2.664736 2.758018 1.75862 
-0.647109 -0.007943 0.890669 -1.99087 2.758015 2.495996 
-0.340205 -0.007943 1.047044 -1.122123 2.758015 2.989048 
-0 -0.007943 1.100927 -0.1435402 2.758017 3.189509 
0.340205 -0.007943 1.047044 0.8490971 2.758023 3.077759 
0.647109 -0.007943 0.890669 1.758622 2.758022 2.664735 
0.890669 -0.007943 0.647108 2.495998 2.758022 1.99087 
1.047044 -0.007943 0.340205 2.989048 2.758023 1.122125 
1.100927 -0.007943 0 3.189509 2.758022 0.1435376 
-1e-06 -1.100317 -1e-06 -2.518296e-06 -19.93681 -2.581626e-06 
3 201 202 203 
3 201 203 204 
3 202 205 206 
3 202 206 203 
3 205 207 208 
3 205 208 206 
3 207 209 210 
3 207 210 208 
3 209 211 212 
3 209 212 210 
3 211 213 214 
3 211 214 212 
3 213 215 216 
3 213 216 214 
3 215 217 218 
3 215 218 216 
3 217 219 220 
3 217 220 218 
3 219 221 222 
3 219 222 220 
3 221 223 224 
3 221 224 222 
3 223 225 226 
3 223 226 224 
3 225 227 228 
3 225 228 226 
3 227 229 230 
3 227 230 228 
3 229 231 232 
3 229 232 230 
3 231 233 234 
3 231 234 232 
3 233 235 236 
3 233 236 234 
3 235 237 238 
3 235 238 236 
3 237 239 240 
3 237 240 238 
3 239 201 204 
3 239 204 240 
3 204 203 241 
3 204 241 242 
3 203 206 243 
3 203 243 241 
3 206 208 244 
3 206 244 243 
3 208 210 245 
3 208 245 244 
3 210 212 246 
3 210 246 245 
3 212 214 247 
3 212 247 246 
3 214 216 248 
3 214 248 247 
3 216 218 249 
3 216 249 248 
3 218 220 250 
3 218 250 249 
3 220 222 251 
3 220 251 250 
3 222 224 252 
3 222 252 251 
3 224 226 253 
3 224 253 252 
3 226 228 254 
3 226 254 253 
3 228 230 255 
3 228 255 254 
3 230 232 256 
3 230 256 255 
3 232 234 257 
3 232 257 256 
3 234 236 258 
3 234 258 257 
3 236 238 259 
3 236 259 258 
3 238 240 260 
3 238 260 259 
3 240 204 242 
3 240 242 260 
3 242 241 261 
3 242 261 262 
3 241 243 263 
3 241 263 261 
3 243 244 264 
3 243 264 263 
3 244 245 265 
3 244 265 264 
3 245 246 266 
3 245 266 265 
3 246 247 267 
3 246 267 266 
3 247 248 268 
3 247 268 267 
3 248 249 269 
3 248 269 268 
3 249 250 270 
3 249 270 269 
3 250 251 271 
3 250 271 270 
3 251 252 272 
3 251 272 271 
3 252 253 273 
3 252 273 272 
3 253 254 274 
3 253 274 273 
3 254 255 275 
3 254 275 274 
3 255 256 276 
3 255 276 275 
3 256 257 277 
3 256 277 276 
3 257 258 278 
3 257 278 277 
3 258 259 279 
3 258 279 278 
3 259 260 280 
3 259 280 279 
3 260 242 262 
3 260 262 280 
3 262 261 281 
3 262 281 282 
3 261 263 283 
3 261 283 281 
3 263 264 284 
3 263 284 283 
3 264 265 285 
3 264 285 284 
3 265 266 286 
3 265 286 285 
3 266 267 287 
3 266 287 286 
3 267 268 288 
3 267 288 287 
3 268 269 289 
3 268 289 288 
3 269 270 290 
3 269 290 289 
3 270 271 291 
3 270 291 290 
3 271 272 292 
3 271 292 291 
3 272 273 293 
3 272 293 292 
3 273 274 294 
3 273 294 293 
3 274 275 295 
3 274 295 294 
3 275 276 296 
3 275 296 295 
3 276 277 297 
3 276 297 296 
3 277 278 298 
3 277 298 297 
3 278 279 299 
3 278 299 298 
3 279 280 300 
3 279 300 299 
3 280 262 282 
3 280 282 300 
3 282 281 301 
3 282 301 302 
3 281 283 303 
3 281 303 301 
3 283 284 304 
3 283 304 303 
3 284 285 305 
3 284 305 304 
3 285 286 306 
3 285 306 305 
3 286 287 307 
3 286 307 306 
3 287 288 308 
3 287 308 307 
3 288 289 309 
3 288 309 308 
3 289 290 310 
3 289 310 309 
3 290 291 311 
3 290 311 310 
3 291 292 312 
3 291 312 311 
3 292 293 313 
3 292 313 312 
3 293 294 314 
3 293 314 313 
3 294 295 315 
3 294 315 314 
3 295 296 316 
3 295 316 315 
3 296 297 317 
3 296 317 316 
3 297 298 318 
3 297 318 317 
3 298 299 319 
3 298 319 318 
3 299 300 320 
3 299 320 319 
3 300 282 302 
3 300 302 320 
3 302 301 321 
3 302 321 322 
3 301 303 323 
3 301 323 321 
3 303 304 324 
3 303 324 323 
3 304 305 325 
3 304 325 324 
3 305 306 326 
3 305 326 325 
3 306 307 327 
3 306 327 326 
3 307 308 328 
3 307 328 327 
3 308 309 329 
3 308 329 328 
3 309 310 330 
3 309 330 329 
3 310 311 331 
3 310 331 330 
3 311 312 332 
3 311 332 331 
3 312 313 333 
3 312 333 332 
3 313 314 334 
3 313 334 333 
3 314 315 335 
3 314 335 334 
3 315 316 336 
3 315 336 335 
3 316 317 337 
3 316 337 336 
3 317 318 338 
3 317 338 337 
3 318 319 339 
3 318 339 338 
3 319 320 340 
3 319 340 339 
3 320 302 322 
3 320 322 340 
3 322 321 341 
3 322 341 342 
3 321 323 343 
3 321 343 341 
3 323 324 344 
3 323 344 343 
3 324 325 345 
3 324 345 344 
3 325 326 346 
3 325 346 345 
3 326 327 347 
3 326 347 346 
3 327 328 348 
3 327 348 347 
3 328 329 349 
3 328 349 348 
3 329 330 350 
3 329 350 349 
3 330 331 351 
3 330 351 350 
3 331 332 352 
3 331 352 351 
3 332 333 353 
3 332 353 352 
3 333 334 354 
3 333 354 353 
3 334 335 355 
3 334 355 354 
3 335 336 356 
3 335 356 355 
3 336 337 357 
3 336 357 356 
3 337 338 358 
3 337 358 357 
3 338 339 359 
3 338 359 358 
3 339 340 360 
3 339 360 359 
3 340 322 342 
3 340 342 360 
3 342 341 361 
3 342 361 362 
3 341 343 363 
3 341 363 361 
3 343 344 364 
3 343 364 363 
3 344 345 365 
3 344 365 364 
3 345 346 366 
3 345 366 365 
3 346 347 367 
3 346 367 366 
3 347 348 368 
3 347 368 367 
3 348 349 369 
3 348 369 368 
3 349 350 370 
3 349 370 369 
3 350 351 371 
3 350 371 370 
3 351 352 372 
3 351 372 371 
3 352 353 373 
3 352 373 372 
3 353 354 374 
3 353 374 373 
3 354 355 375 
3 354 375 374 
3 355 356 376 
3 355 376 375 
3 356 357 377 
3 356 377 376 
3 357 358 378 
3 357 378 377 
3 358 359 379 
3 358 379 378 
3 359 360 380 
3 359 380 379 
3 360 342 362 
3 360 362 380 
3 362 361 381 
3 362 381 382 
3 361 363 383 
3 361 383 381 
3 363 364 384 
3 363 384 383 
3 364 365 385 
3 364 385 384 
3 365 366 386 
3 365 386 385 
3 366 367 387 
3 366 387 386 
3 367 368 388 
3 367 388 387 
3 368 369 389 
3 368 389 388 
3 369 370 390 
3 369 390 389 
3 370 371 391 
3 370 391 390 
3 371 372 392 
3 371 392 391 
3 372 373 393 
3 372 393 392 
3 373 374 394 
3 373 394 393 
3 374 375 395 
3 374 395 394 
3 375 376 396 
3 375 396 395 
3 376 377 397 
3 376 397 396 
3 377 378 398 
3 377 398 397 
3 378 379 399 
3 378 399 398 
3 379 380 400 
3 379 400 399 
3 380 362 382 
3 380 382 400 
3 202 201 401 
3 205 202 401 
3 207 205 401 
3 209 207 401 
3 211 209 401 
3 213 211 401 
3 215 213 401 
3 217 215 401 
3 219 217 401 
3 221 219 401 
3 223 221 401 
3 225 223 401 
3 227 225 401 
3 229 227 401 
3 231 229 401 
3 233 231 401 
3 235 233 401 
3 237 235 401 
3 239 237 401 
3 201 239 401 
3 0 20 21 
3 0 21 1 
3 1 21 22 
3 1 22 2 
3 2 22 23 
3 2 23 3 
3 3 23 24 
3 3 24 4 
3 4 24 25 
3 4 25 5 
3 5 25 26 
3 5 26 6 
3 6 26 27 
3 6 27 7 
3 7 27 28 
3 7 28 8 
3 8 28 29 
3 8 29 9 
3 9 29 30 
3 9 30 10 
3 10 30 31 
3 10 31 11 
3 11 31 32 
3 11 32 12 
3 12 32 33 
3 12 33 13 
3 13 33 34 
3 13 34 14 
3 14 34 35 
3 14 35 15 
3 15 35 36 
3 15 36 16 
3 16 36 37 
3 16 37 17 
3 17 37 38 
3 17 38 18 
3 18 38 39 
3 18 39 19 
3 19 39 20 
3 19 20 0 
3 20 40 41 
3 20 41 21 
3 21 41 42 
3 21 42 22 
3 22 42 43 
3 22 43 23 
3 23 43 44 
3 23 44 24 
3 24 44 45 
3 24 45 25 
3 25 45 46 
3 25 46 26 
3 26 46 47 
3 26 47 27 
3 27 47 48 
3 27 48 28 
3 28 48 49 
3 28 49 29 
3 29 49 50 
3 29 50 30 
3 30 50 51 
3 30 51 31 
3 31 51 52 
3 31 52 32 
3 32 52 53 
3 32 53 33 
3 33 53 54 
3 33 54 34 
3 34 54 55 
3 34 55 35 
3 35 55 56 
3 35 56 36 
3 36 56 57 
3 36 57 37 
3 37 57 58 
3 37 58 38 
3 38 58 59 
3 38 59 39 
3 39 59 40 
3 39 40 20 
3 40 60 61 
3 40 61 41 
3 41 61 62 
3 41 62 42 
3 42 62 63 
3 42 63 43 
3 43 63 64 
3 43 64 44 
3 44 64 65 
3 44 65 45 
3 45 65 66 
3 45 66 46 
3 46 66 67 
3 46 67 47 
3 47 67 68 
3 47 68 48 
3 48 68 69 
3 48 69 49 
3 49 69 70 
3 49 70 50 
3 50 70 71 
3 50 71 51 
3 51 71 72 
3 51 72 52 
3 52 72 73 
3 52 73 53 
3 53 73 74 
3 53 74 54 
3 54 74 75 
3 54 75 55 
3 55 75 76 
3 55 76 56 
3 56 76 77 
3 56 77 57 
3 57 77 78 
3 57 78 58 
3 58 78 79 
3 58 79 59 
3 59 79 60 
3 59 60 40 
3 60 80 81 
3 60 81 61 
3 61 81 82 
3 61 82 62 
3 62 82 83 
3 62 83 63 
3 63 83 84 
3 63 84 64 
3 64 84 85 
3 64 85 65 
3 65 85 86 
3 65 86 66 
3 66 86 87 
3 66 87 67 
3 67 87 88 
3 67 88 68 
3 68 88 89 
3 68 89 69 
3 69 89 90 
3 69 90 70 
3 70 90 91 
3 70 91 71 
3 71 91 92 
3 71 92 72 
3 72 92 93 
3 72 93 73 
3 73 93 94 
3 73 94 74 
3 74 94 95 
3 74 95 75 
3 75 95 96 
3 75 96 76 
3 76 96 97 
3 76 97 77 
3 77 97 98 
3 77 98 78 
3 78 98 99 
3 78 99 79 
3 79 99 80 
3 79 80 60 
3 80 100 101 
3 80 101 81 
3 81 101 102 
3 81 102 82 
3 82 102 103 
3 82 103 83 
3 83 103 104 
3 83 104 84 
3 84 104 105 
3 84 105 85 
3 85 105 106 
3 85 106 86 
3 86 106 107 
3 86 107 87 
3 87 107 108 
3 87 108 88 
3 88 108 109 
3 88 109 89 
3 89 109 110 
3 89 110 90 
3 90 110 111 
3 90 111 91 
3 91 111 112 
3 91 112 92 
3 92 112 113 
3 92 113 93 
3 93 113 114 
3 93 114 94 
3 94 114 115 
3 94 115 95 
3 95 115 116 
3 95 116 96 
3 96 116 117 
3 96 117 97 
3 97 117 118 
3 97 118 98 
3 98 118 119 
3 98 119 99 
3 99 119 100 
3 99 100 80 
3 100 120 121 
3 100 121 101 
3 101 121 122 
3 101 122 102 
3 102 122 123 
3 102 123 103 
3 103 123 124 
3 103 124 104 
3 104 124 125 
3 104 125 105 
3 105 125 126 
3 105 126 106 
3 106 126 127 
3 106 127 107 
3 107 127 128 
3 107 128 108 
3 108 128 129 
3 108 129 109 
3 109 129 130 
3 109 130 110 
3 110 130 131 
3 110 131 111 
3 111 131 132 
3 111 132 112 
3 112 132 133 
3 112 133 113 
3 113 133 134 
3 113 134 114 
3 114 134 135 
3 114 135 115 
3 115 135 136 
3 115 136 116 
3 116 136 137 
3 116 137 117 
3 117 137 138 
3 117 138 118 
3 118 138 139 
3 118 139 119 
3 119 139 120 
3 119 120 100 
3 120 140 141 
3 120 141 121 
3 121 141 142 
3 121 142 122 
3 122 142 143 
3 122 143 123 
3 123 143 144 
3 123 144 124 
3 124 144 145 
3 124 145 125 
3 125 145 146 
3 125 146 126 
3 126 146 147 
3 126 147 127 
3 127 147 148 
3 127 148 128 
3 128 148 149 
3 128 149 129 
3 129 149 150 
3 129 150 130 
3 130 150 151 
3 130 151 131 
3 131 151 152 
3 131 152 132 
3 132 152 153 
3 132 153 133 
3 133 153 154 
3 133 154 134 
3 134 154 155 
3 134 155 135 
3 135 155 156 
3 135 156 136 
3 136 156 157 
3 136 157 137 
3 137 157 158 
3 137 158 138 
3 138 158 159 
3 138 159 139 
3 139 159 140 
3 139 140 120 
3 140 160 161 
3 140 161 141 
3 141 161 162 
3 141 162 142 
3 142 162 163 
3 142 163 143 
3 143 163 164 
3 143 164 144 
3 144 164 165 
3 144 165 145 
3 145 165 166 
3 145 166 146 
3 146 166 167 
3 146 167 147 
3 147 167 168 
3 147 168 148 
3 148 168 169 
3 148 169 149 
3 149 169 170 
3 149 170 150 
3 150 170 171 
3 150 171 151 
3 151 171 172 
3 151 172 152 
3 152 172 173 
3 152 173 153 
3 153 173 174 
3 153 174 154 
3 154 174 175 
3 154 175 155 
3 155 175 176 
3 155 176 156 
3 156 176 177 
3 156 177 157 
3 157 177 178 
3 157 178 158 
3 158 178 179 
3 158 179 159 
3 159 179 160 
3 159 160 140 
3 160 180 181 
3 160 181 161 
3 161 181 182 
3 161 182 162 
3 162 182 183 
3 162 183 163 
3 163 183 184 
3 163 184 164 
3 164 184 185 
3 164 185 165 
3 165 185 186 
3 165 186 166 
3 166 186 187 
3 166 187 167 
3 167 187 188 
3 167 188 168 
3 168 188 189 
3 168 189 169 
3 169 189 190 
3 169 190 170 
3 170 190 191 
3 170 191 171 
3 171 191 192 
3 171 192 172 
3 172 192 193 
3 172 193 173 
3 173 193 194 
3 173 194 174 
3 174 194 195 
3 174 195 175 
3 175 195 196 
3 175 196 176 
3 176 196 197 
3 176 197 177 
3 177 197 198 
3 177 198 178 
3 178 198 199 
3 178 199 179 
3 179 199 180 
3 179 180 160 
3 1 200 0 
3 2 200 1 
3 3 200 2 
3 4 200 3 
3 5 200 4 
3 6 200 5 
3 7 200 6 
3 8 200 7 
3 9 200 8 
3 10 200 9 
3 11 200 10 
3 12 200 11 
3 13 200 12 
3 14 200 13 
3 15 200 14 
3 16 200 15 
3 17 200 16 
3 18 200 17 
3 19 200 18 
3 0 200 19 
3 181 180 382 
3 181 382 381 
3 182 181 381 
3 182 381 383 
3 183 182 383 
3 183 383 384 
3 184 183 384 
3 184 384 385 
3 185 184 385 
3 185 385 386 
3 186 185 386 
3 186 386 387 
3 187 186 387 
3 187 387 388 
3 188 187 388 
3 188 388 389 
3 189 188 389 
3 189 389 390 
3 190 189 390 
3 190 390 391 
3 191 190 391 
3 191 391 392 
3 192 191 392 
3 192 392 393 
3 193 192 393 
3 193 393 394 
3 194 193 394 
3 194 394 395 
3 195 194 395 
3 195 395 396 
3 196 195 396 
3 196 396 397 
3 197 196 397 
3 197 397 398 
3 198 197 398 
3 198 398 399 
3 199 198 399 
3 199 399 400 
3 180 199 400 
3 180 400 382 
